<svg width="92" height="294" viewBox="0 0 92 294" fill="none" xmlns="http://www.w3.org/2000/svg">
<path d="M35.36 42.0273C31 41.8573 14.02 69.5173 14.02 69.5173L2.48001 67.3173L0 73.2173C0 73.2173 10.41 78.2973 14.59 78.7473C18.77 79.1973 34.82 56.8873 34.82 56.8873L35.36 42.0273Z" fill="#FFC100"/>
<path opacity="0.2" d="M35.36 42.0173L34.82 56.8873C34.82 56.8873 34.43 57.4273 33.76 58.3273C32.54 59.9973 30.35 62.9273 27.86 66.0573C22.99 72.1573 16.96 79.0573 14.63 78.7573C10.44 78.3073 0.0400085 73.2473 0.0400085 73.2473L2.52 67.3473L14.05 69.5273C14.05 69.5273 31 41.8573 35.36 42.0173Z" fill="white"/>
<path opacity="0.2" d="M33.72 58.3173C32.5 59.9873 30.31 62.9173 27.82 66.0473C27.91 60.1473 33.07 52.8073 33.07 52.8073C33.07 52.8073 33.44 55.2173 33.72 58.3173Z" fill="black"/>
<path d="M68.48 284.097H78.23C78.3902 284.098 78.5455 284.152 78.6708 284.252C78.7961 284.352 78.8839 284.491 78.92 284.647L80.5 291.797C80.5654 292.105 80.5064 292.426 80.3359 292.69C80.1654 292.954 79.8972 293.14 79.59 293.207H79.33C76.17 293.157 73.87 292.967 69.91 292.967C67.47 292.967 60.1 293.217 56.73 293.217C53.36 293.217 52.92 289.887 54.3 289.577C60.49 288.237 65.15 286.367 67.13 284.577C67.5017 284.25 67.9851 284.078 68.48 284.097Z" fill="#263238"/>
<path d="M27.1 283.837H36.82C36.979 283.838 37.1329 283.893 37.2565 283.993C37.3801 284.093 37.4659 284.232 37.5 284.387L39.09 291.547C39.1522 291.855 39.0904 292.175 38.9181 292.437C38.7458 292.699 38.4769 292.882 38.17 292.947C38.0837 292.958 37.9964 292.958 37.91 292.947C34.76 292.887 32.46 292.697 28.49 292.697C26.05 292.697 18.69 292.957 15.32 292.957C11.95 292.957 11.51 289.627 12.89 289.317C19.08 287.967 23.73 286.097 25.72 284.317C26.103 283.989 26.5959 283.818 27.1 283.837Z" fill="#263238"/>
<path d="M73.65 103.257H31.03C26.97 125.387 14.29 215.257 23.39 285.027H37.82C37.82 285.027 36.48 179.027 49.22 144.807C50.69 163.137 65.59 284.947 65.59 284.947H80.28C80.28 284.947 78.08 239.127 75.88 195.837C74.5 168.587 73.71 108.847 73.65 103.257Z" fill="#263238"/>
<path opacity="0.2" d="M49.22 144.807C47.1241 150.811 45.5319 156.979 44.46 163.247C43.27 146.937 48.04 129.647 48.04 129.647L49.22 144.807Z" fill="black"/>
<path d="M30.67 103.767H73.57V108.877L30.12 108.347L30.67 103.767Z" fill="black"/>
<path d="M59.78 101.467H58.25V110.537H59.78V101.467Z" fill="#263238"/>
<path d="M38.07 101.467H36.54V110.537H38.07V101.467Z" fill="#263238"/>
<path d="M50.23 102.867H42.29V108.587H50.23V102.867Z" fill="white"/>
<path d="M73.71 104.587C74.84 80.1773 82.02 45.5873 82.02 45.5873C62.1 40.7873 35.36 41.9873 35.36 41.9873C30.15 60.6273 30.24 90.7073 30.69 104.547L73.71 104.587Z" fill="#FFC100"/>
<path opacity="0.2" d="M82.02 45.6173C82.02 45.6173 81.22 49.4873 80.11 55.5373C79.58 58.4273 78.97 61.8173 78.36 65.5373C78 67.7073 77.63 69.9773 77.28 72.3173C76.93 74.6573 76.57 76.9473 76.28 79.3173C75.1 87.7973 74.11 96.7273 73.74 104.597H30.74C30.29 90.7573 30.2 60.6773 35.41 42.0273C35.36 42.0173 62.11 40.8173 82.02 45.6173Z" fill="white"/>
<path opacity="0.2" d="M80.11 55.5373C79.58 58.4273 78.97 61.8173 78.36 65.5373C78 67.7073 77.63 69.9773 77.28 72.3173C74.12 64.0273 79.5 52.8273 79.5 52.8273L80.11 55.5373Z" fill="black"/>
<path d="M49.52 45.3173L50.59 50.5973C50.59 50.5973 44.44 76.2673 43.12 89.5973L45.36 91.8373L48.89 89.5973C48.89 89.5973 49.2 62.4873 52.32 51.0973L57.9 46.5273L53.5 45.0973L49.52 45.3173Z" fill="#263238"/>
<path d="M66.22 42.9273C62.54 46.2773 53.5 45.0373 53.5 45.0373C53.5 45.0373 47.87 43.4973 49.05 41.7373C52.37 41.1873 53.98 39.6373 54.64 37.6573C55.0078 36.4299 55.1234 35.1407 54.98 33.8673C54.9267 33.156 54.8332 32.4482 54.7 31.7473L65.87 23.4773C64.4 28.9373 62.61 38.9773 66.22 42.9273Z" fill="#EEC1BB"/>
<path opacity="0.2" d="M63.29 28.7373C62.84 35.4373 57.29 37.2773 54.64 37.6573C55.0078 36.4299 55.1234 35.1407 54.98 33.8673L63.29 28.7373Z" fill="black"/>
<path d="M64.58 38.6773L53.9 43.4973L53.28 39.6373L49.35 41.0173C48.6671 41.2567 48.0851 41.7199 47.6984 42.3316C47.3118 42.9433 47.1432 43.6678 47.22 44.3873L47.66 48.6273L53.07 45.6273L55.77 49.4373L68.59 43.3173L64.58 38.6773Z" fill="#FFC100"/>
<path opacity="0.3" d="M64.58 38.6773L53.9 43.4973L53.28 39.6373L49.35 41.0173C48.6671 41.2567 48.0851 41.7199 47.6984 42.3316C47.3118 42.9433 47.1432 43.6678 47.22 44.3873L47.66 48.6273L53.07 45.6273L55.77 49.4373L68.59 43.3173L64.58 38.6773Z" fill="white"/>
<path d="M42.98 7.96733C42.98 7.96733 41.31 18.7173 46.98 22.8773C52.65 27.0373 52.74 7.00734 52.74 7.00734L42.98 7.96733Z" fill="#263238"/>
<path d="M63.55 31.4673C62.3506 33.2372 60.6022 34.5632 58.5746 35.2409C56.5469 35.9186 54.3525 35.9103 52.33 35.2173C49.6956 34.3785 47.4813 32.5649 46.14 30.1473C45.9531 29.8229 45.7829 29.4891 45.63 29.1473C42.84 22.5673 41.98 11.0673 48.94 6.77735C51.3182 5.2927 54.1884 4.81264 56.9202 5.44263C59.6521 6.07262 62.0222 7.76116 63.51 10.1373C64.3976 11.5432 64.936 13.141 65.08 14.7973C65.91 22.4573 66.76 26.9373 63.55 31.4673Z" fill="#EEC1BB"/>
<path d="M53.87 18.8373C54.01 19.4473 53.73 20.0173 53.32 20.0873C52.91 20.1573 52.5 19.6973 52.39 19.0873C52.28 18.4773 52.54 17.9173 52.94 17.8473C53.34 17.7773 53.76 18.2173 53.87 18.8373Z" fill="#263238"/>
<path d="M46.82 20.0173C46.96 20.6273 46.67 21.1973 46.27 21.2573C45.87 21.3173 45.45 20.8773 45.35 20.2573C45.25 19.6373 45.49 19.0773 45.89 19.0173C46.29 18.9573 46.75 19.4273 46.82 20.0173Z" fill="#263238"/>
<path d="M49.13 19.9473C48.7095 21.9711 48.0095 23.9265 47.05 25.7573C47.5286 25.9893 48.0517 26.1148 48.5834 26.1251C49.1151 26.1355 49.6428 26.0305 50.13 25.8173L49.13 19.9473Z" fill="#D4827D"/>
<path d="M43.74 17.4573C43.8041 17.4787 43.8726 17.4835 43.939 17.4713C44.0055 17.459 44.0677 17.4302 44.12 17.3873C44.461 17.0719 44.8707 16.8399 45.3167 16.7098C45.7627 16.5796 46.2328 16.5548 46.69 16.6373C46.736 16.651 46.7842 16.6554 46.8319 16.6502C46.8795 16.645 46.9257 16.6303 46.9676 16.607C47.0095 16.5837 47.0464 16.5523 47.076 16.5146C47.1056 16.4768 47.1273 16.4336 47.14 16.3873C47.1648 16.2919 47.1516 16.1906 47.103 16.1047C47.0545 16.0189 46.9745 15.9553 46.88 15.9273C46.3073 15.8075 45.7143 15.8266 45.1505 15.9832C44.5868 16.1398 44.0688 16.4293 43.64 16.8273C43.5646 16.8897 43.5169 16.9795 43.5076 17.077C43.4982 17.1745 43.5278 17.2717 43.59 17.3473C43.6325 17.3932 43.6834 17.4306 43.74 17.4573Z" fill="#263238"/>
<path d="M54.82 15.7973C54.8887 15.787 54.9522 15.7546 55.0009 15.7051C55.0496 15.6555 55.0809 15.5914 55.0899 15.5225C55.0989 15.4536 55.0853 15.3836 55.051 15.3231C55.0168 15.2627 54.9638 15.215 54.9 15.1873C54.4049 14.8715 53.8407 14.6802 53.2556 14.6297C52.6705 14.5792 52.0819 14.671 51.54 14.8973C51.4961 14.9176 51.4567 14.9466 51.4241 14.9825C51.3916 15.0184 51.3667 15.0604 51.3508 15.1062C51.3349 15.1519 51.3285 15.2004 51.3318 15.2487C51.3351 15.297 51.3481 15.3442 51.37 15.3873C51.4131 15.4743 51.4886 15.5408 51.5802 15.5726C51.6719 15.6044 51.7724 15.5989 51.86 15.5573C52.2941 15.3936 52.7602 15.3328 53.2218 15.3796C53.6833 15.4265 54.1277 15.5797 54.52 15.8273C54.569 15.8457 54.6215 15.8526 54.6735 15.8474C54.7256 15.8422 54.7757 15.8251 54.82 15.7973Z" fill="#263238"/>
<path d="M57.89 6.19734V9.62733C58.4882 9.83354 58.9884 10.2548 59.2934 10.8092C59.5983 11.3637 59.6862 12.0117 59.54 12.6273C58.78 15.6273 60.92 19.8173 63.32 21.3173C63.32 21.3173 63.24 20.0773 64.32 20.2473C65.4 20.4173 65.88 26.8673 64.21 30.1773C64.21 30.1773 66.95 27.0373 67.88 20.0973C68.74 13.6673 68.32 8.44733 66.76 6.18733L57.89 6.19734Z" fill="#263238"/>
<path d="M69.46 20.4573C68.9031 22.3241 67.6305 23.895 65.92 24.8273C63.64 26.0373 61.92 24.1373 62.11 21.6973C62.27 19.5273 63.63 16.2173 66.11 16.0373C68.59 15.8573 70.11 18.1573 69.46 20.4573Z" fill="#EEC1BB"/>
<path d="M50.94 27.6973C51.4761 28.5195 51.954 29.3783 52.37 30.2673L52.87 30.1173C55.12 29.4573 55.94 28.4073 56.18 27.4473C56.2922 26.9773 56.2922 26.4874 56.18 26.0173C56.1183 25.752 56.0207 25.4963 55.89 25.2573C54.6812 26.2809 53.2656 27.0313 51.74 27.4573C51.24 27.6173 50.94 27.6973 50.94 27.6973Z" fill="#263238"/>
<path d="M51.7 27.4573L52.14 28.2073C54.26 27.5773 55.67 26.8573 56.14 26.0173C56.0783 25.752 55.9807 25.4963 55.85 25.2573C54.6412 26.2809 53.2256 27.0313 51.7 27.4573Z" fill="white"/>
<path d="M52.87 30.1173C55.12 29.4573 55.94 28.4073 56.18 27.4473C55.3282 27.718 54.5298 28.1342 53.82 28.6773C53.3617 29.0472 53.0297 29.5504 52.87 30.1173Z" fill="#DE5753"/>
<path d="M66.22 7.81734C66.22 7.81734 69.91 3.31734 61.06 0.557344C52.21 -2.20266 39.26 6.01733 41.89 9.26733C44.52 12.5173 53.59 11.1573 53.59 11.1573C52.3226 11.0046 51.1237 10.4987 50.13 9.69734C50.13 9.69734 63.25 10.5773 66.22 7.81734Z" fill="#263238"/>
<path d="M82.02 45.6273C87.63 47.5273 91.47 82.4073 91.4 85.4373C91.33 88.4673 82.74 89.7773 82.02 83.4373C81.3 77.0973 78.36 63.6173 78.36 63.6173C78.36 63.6173 77.58 57.5173 78.36 53.8173C79.14 50.1173 82.02 45.6273 82.02 45.6273Z" fill="#FFC100"/>
<path opacity="0.2" d="M82.02 45.6273C87.63 47.5273 91.47 82.4073 91.4 85.4373C91.33 88.4673 82.74 89.7773 82.02 83.4373C81.3 77.0973 78.36 63.6173 78.36 63.6173C78.36 63.6173 77.58 57.5173 78.36 53.8173C79.14 50.1173 82.02 45.6273 82.02 45.6273Z" fill="white"/>
</svg>
