<svg width="220" height="610" viewBox="0 0 220 610" fill="none" xmlns="http://www.w3.org/2000/svg">
<path d="M117.74 124.97L98.9259 117.383C98.9259 117.383 74.0996 162.655 66.9874 164.95C57.3148 168.06 37.2869 176.708 25.4142 178.226C23.8021 180.122 21.1658 186.021 21.4124 188.164C37.3627 193.493 72.4116 186.419 79.9221 180.843C97.0103 168.193 117.74 124.97 117.74 124.97Z" fill="#E58A7B"/>
<path d="M123.525 114.671C127.033 127.625 108.03 153.684 108.03 153.684L83.1273 139.725C83.1273 139.725 87.7929 129.009 93.4827 118.104C102.605 100.485 119.523 99.8967 123.525 114.671Z" fill="#FFC100"/>
<path opacity="0.2" d="M123.525 114.671C127.033 127.625 108.03 153.684 108.03 153.684L83.1273 139.725C83.1273 139.725 87.7929 129.009 93.4827 118.104C102.605 100.485 119.523 99.8967 123.525 114.671Z" fill="black"/>
<path opacity="0.2" d="M93.0085 145.301L102.814 150.801L104.54 120.702C98.8311 125.083 94.8103 138.284 93.0085 145.301Z" fill="black"/>
<path d="M107.138 104.923C107.138 104.923 87.755 148.051 99.0586 228.353H175.434C176.648 216.632 172.627 159.431 187.174 104.202C178.796 102.565 170.319 101.481 161.798 100.959C150.99 100.333 140.155 100.333 129.347 100.959C121.855 101.72 114.431 103.045 107.138 104.923Z" fill="#FFC100"/>
<path opacity="0.2" d="M107.138 104.923C107.138 104.923 87.755 148.051 99.0586 228.353H175.434C176.648 216.632 172.627 159.431 187.174 104.202C178.796 102.565 170.319 101.481 161.798 100.959C150.99 100.333 140.155 100.333 129.347 100.959C121.855 101.72 114.431 103.045 107.138 104.923Z" fill="black"/>
<g style="mix-blend-mode:multiply">
<path d="M89.424 606.153C89.3102 608.201 118.271 609.851 154.098 609.851C189.924 609.851 219.094 608.201 219.207 606.153C219.321 604.104 190.379 602.473 154.534 602.473C118.688 602.473 89.5568 604.123 89.424 606.153Z" fill="#E8ECF1"/>
</g>
<path d="M140.405 552.332L126.859 557.576L138.528 587.72L152.074 582.476L140.405 552.332Z" fill="#E58A7B"/>
<path d="M200.811 591.568H186.529L181.295 558.51H195.576L200.811 591.568Z" fill="#E58A7B"/>
<path d="M185.543 589.918H201.588C201.866 589.919 202.136 590.018 202.347 590.199C202.559 590.379 202.7 590.629 202.745 590.904L204.812 603.592C204.856 603.91 204.83 604.234 204.738 604.542C204.645 604.85 204.487 605.134 204.275 605.375C204.062 605.616 203.801 605.808 203.507 605.939C203.214 606.07 202.896 606.137 202.574 606.134C196.979 606.039 194.286 605.697 187.231 605.697C182.888 605.697 173.955 606.153 167.924 606.153C161.893 606.153 161.494 600.235 163.979 599.685C175.131 597.277 179.455 593.995 183.172 590.809C183.828 590.233 184.671 589.916 185.543 589.918Z" fill="#263238"/>
<path d="M138.128 585.024L153.301 580.586C153.572 580.51 153.861 580.529 154.119 580.639C154.378 580.749 154.591 580.945 154.723 581.193L160.413 592.573C160.545 592.861 160.613 593.175 160.611 593.493C160.609 593.811 160.538 594.124 160.403 594.411C160.267 594.698 160.071 594.952 159.827 595.156C159.583 595.359 159.298 595.507 158.991 595.588C153.472 597.106 149.773 598.035 142.87 600.045C138.109 601.43 133.254 603.687 128.551 605.185C125.288 606.228 117.626 606.266 113.662 606.266C107.802 606.266 106.493 600.083 109.016 599.799C115.369 599.097 116.223 599.419 119.731 597.656C125.473 595.146 130.676 591.553 135.056 587.073C135.882 586.131 136.942 585.425 138.128 585.024Z" fill="#263238"/>
<path d="M27.8039 178.15L12.1002 171.569L5.63286 188.979C12.0694 189.96 18.6173 189.96 25.0539 188.979L27.8039 178.15Z" fill="#E58A7B"/>
<path d="M0.417251 171.114L0 182.683L5.63286 188.941L12.1002 171.531L0.417251 171.114Z" fill="#E58A7B"/>
<path d="M142.264 554.892L128.675 560.138L134.693 575.726L148.282 570.48L142.264 554.892Z" fill="#CF6F64"/>
<path d="M195.576 558.51H181.295L184.007 575.56H198.288L195.576 558.51Z" fill="#CF6F64"/>
<path opacity="0.2" d="M96.631 206.637C96.9155 210.069 97.238 213.578 97.6552 217.182L154.439 198.747C163.307 196.119 171.013 190.546 176.288 182.948C176.515 177.884 176.8 172.555 177.236 166.998C177.426 164.305 177.653 161.536 177.9 158.729C178.146 155.922 178.488 152.811 178.848 149.815L96.631 206.637Z" fill="black"/>
<path d="M115.18 144.429L113.283 144.201C114.402 134.718 121.476 127.246 128.93 127.435V129.332C122.406 129.199 116.185 135.932 115.18 144.429Z" fill="white"/>
<path d="M125.288 161.934H124.966V160.037C131.49 160.284 137.616 153.475 138.621 144.998L140.518 145.225C139.513 154.499 132.666 161.934 125.288 161.934Z" fill="white"/>
<path d="M160.736 64.4116C158.062 74.8618 154.913 93.9984 161.798 100.959C161.798 100.959 156.98 111.561 137.578 111.561C119.845 111.561 129.347 100.959 129.347 100.959C141.144 98.1898 141.353 89.5793 139.797 81.424L160.736 64.4116Z" fill="#E58A7B"/>
<path d="M152.201 71.353L139.816 81.4239C140.2 83.298 140.422 85.2016 140.48 87.1137C144.103 90.7172 151.367 81.5946 152.106 76.929C152.482 75.0922 152.514 73.2016 152.201 71.353Z" fill="#CF6F64"/>
<path d="M118.518 64.2787C119.379 65.7724 120.54 67.0722 121.927 68.0969C123.314 69.1216 124.897 69.8491 126.578 70.234C131.13 71.2392 133.406 67.0478 132.154 62.8373C131.035 59.0442 127.299 53.9424 122.671 54.8148C121.68 55.019 120.752 55.4577 119.965 56.0943C119.178 56.7308 118.555 57.5466 118.149 58.4734C117.742 59.4001 117.563 60.4109 117.627 61.4209C117.692 62.431 117.997 63.4109 118.518 64.2787Z" fill="#CF6F64"/>
<path d="M126.047 30.8419C118.954 34.0851 116.45 62.2684 125.364 66.4408C134.278 70.6133 139.475 24.678 126.047 30.8419Z" fill="#263238"/>
<path d="M162.898 48.6888C161.191 62.8374 161.001 71.1634 153.415 78.4084C151.064 80.8126 148.095 82.5204 144.834 83.3432C141.574 84.1661 138.15 84.0719 134.94 83.0712C131.729 82.0705 128.858 80.2021 126.643 77.6724C124.428 75.1426 122.955 72.0499 122.387 68.7358C120.092 56.0286 123.259 35.0334 137.446 29.4006C140.426 28.0858 143.704 27.5923 146.94 27.9711C150.176 28.3499 153.251 29.5872 155.848 31.5548C158.444 33.5225 160.467 36.1488 161.707 39.1615C162.946 42.1742 163.358 45.4637 162.898 48.6888Z" fill="#E58A7B"/>
<path d="M139.589 38.1628C150.096 35.4886 157.815 33.6679 155.046 42.4112C151.386 54.0941 146.985 65.3978 152.884 65.9099C156.487 66.2323 172.419 59.4804 170.389 52.6338C168.625 46.6785 176.079 45.0474 177.407 42.0318C182.319 31.1075 168.265 32.5489 170.769 25.9109C173.272 19.2728 159.389 8.57608 151.803 13.9055C139.456 22.516 118.271 22.3832 129.404 8.21573C137.389 -1.89308 123.145 0.174191 123.145 0.174191C123.145 0.174191 131.756 5.27602 117.266 13.1658C101.941 21.5867 115.995 44.2129 139.589 38.1628Z" fill="#263238"/>
<path d="M168.474 64.2787C166.399 67.2801 163.283 69.4029 159.731 70.234C155.046 71.2392 153.244 67.0478 155.008 62.8373C156.582 59.0442 160.906 53.9424 165.382 54.8148C169.858 55.6872 170.882 60.5614 168.474 64.2787Z" fill="#E58A7B"/>
<path d="M99.0587 228.353C99.0587 228.353 86.2377 343.096 85.2325 386.642C84.2084 431.932 128.683 573.247 128.683 573.247L151.442 563.764C151.442 563.764 124.89 434.644 128.683 390.169C132.704 341.674 149.318 228.428 149.318 228.428L99.0587 228.353Z" fill="#FFC100"/>
<path opacity="0.2" d="M130.921 259.855C120.699 281.059 127.583 322.992 133.121 347.837C135.227 330.294 137.73 311.252 140.101 293.633C139.873 266.55 137.768 245.63 130.921 259.855Z" fill="black"/>
<path d="M150.437 556.253C150.551 556.253 153.13 563.498 153.13 563.498L126.882 574.537L122.747 566.836L150.437 556.253Z" fill="#FFC100"/>
<path d="M126.161 228.353C126.161 228.353 135.966 337.482 142.453 378.354C149.584 423.132 177.539 572.26 177.539 572.26H203.693C203.693 572.26 188.028 426.754 185.069 382.412C181.845 334.315 175.434 228.353 175.434 228.353H126.161Z" fill="#FFC100"/>
<path d="M204.092 565.452C204.205 565.452 204.964 572.754 204.964 572.754H176.212L174.163 564.371L204.092 565.452Z" fill="#FFC100"/>
<path opacity="0.2" d="M194.078 556.803C194.018 556.804 193.961 556.783 193.915 556.745C193.87 556.707 193.84 556.653 193.831 556.595C193.679 555.267 179.55 423.834 176.895 384.005C174.012 340.801 168.208 244.967 168.151 243.999C168.149 243.968 168.153 243.936 168.163 243.906C168.173 243.877 168.189 243.849 168.211 243.826C168.232 243.803 168.258 243.784 168.287 243.772C168.316 243.759 168.347 243.753 168.379 243.753C168.441 243.753 168.501 243.776 168.547 243.818C168.593 243.86 168.621 243.918 168.625 243.98C168.625 244.948 174.486 340.706 177.369 383.986C180.024 423.815 194.153 555.153 194.286 556.576C194.292 556.607 194.29 556.639 194.283 556.67C194.275 556.701 194.261 556.73 194.241 556.755C194.221 556.78 194.197 556.8 194.168 556.815C194.14 556.83 194.109 556.839 194.078 556.841V556.803Z" fill="black"/>
<path d="M141.201 52.6337C141.201 53.7906 140.48 54.72 139.721 54.72C138.963 54.72 138.413 53.7906 138.489 52.6337C138.565 51.4768 139.209 50.5475 139.968 50.5475C140.727 50.5475 141.277 51.4958 141.201 52.6337Z" fill="#263238"/>
<path d="M128.19 52.6337C128.19 53.7906 127.451 54.72 126.711 54.72C125.971 54.72 125.402 53.7906 125.459 52.6337C125.516 51.4768 126.199 50.5475 126.957 50.5475C127.716 50.5475 128.266 51.4958 128.19 52.6337Z" fill="#263238"/>
<path d="M132.287 53.2217C130.704 56.7544 128.663 60.0639 126.218 63.065C128.114 64.9615 131.661 64.0891 131.661 64.0891L132.287 53.2217Z" fill="#DF5753"/>
<path d="M132.628 68.9255C132.584 68.9255 132.541 68.9166 132.5 68.8992C132.46 68.8819 132.423 68.8564 132.393 68.8244C132.363 68.7924 132.34 68.7546 132.325 68.7133C132.31 68.6719 132.303 68.628 132.306 68.5841C132.311 68.4918 132.351 68.405 132.418 68.3414C132.485 68.2779 132.574 68.2426 132.666 68.2427C134.117 68.2527 135.551 67.9377 136.864 67.3206C138.177 66.7036 139.335 65.8003 140.252 64.6771C140.318 64.6197 140.402 64.5881 140.49 64.5881C140.577 64.5881 140.661 64.6197 140.727 64.6771C140.788 64.7407 140.822 64.8257 140.822 64.9142C140.822 65.0026 140.788 65.0876 140.727 65.1512C139.744 66.345 138.507 67.3036 137.105 67.9567C135.704 68.6098 134.174 68.9408 132.628 68.9255Z" fill="#263238"/>
<path d="M143.515 49.144C143.424 49.1906 143.323 49.2149 143.221 49.2149C143.118 49.2149 143.018 49.1906 142.927 49.144C142.217 48.6854 141.41 48.4 140.57 48.3111C139.729 48.2221 138.88 48.332 138.09 48.6319C138.013 48.6704 137.929 48.6931 137.844 48.6987C137.758 48.7042 137.671 48.6925 137.59 48.6642C137.509 48.6359 137.434 48.5917 137.37 48.534C137.306 48.4764 137.254 48.4065 137.218 48.3285C137.148 48.1597 137.146 47.9701 137.213 47.8001C137.28 47.63 137.411 47.493 137.578 47.4181C138.57 47.0132 139.644 46.8534 140.711 46.9525C141.777 47.0515 142.804 47.4064 143.704 47.9871C143.777 48.0365 143.839 48.0999 143.887 48.1736C143.935 48.2472 143.968 48.3296 143.984 48.4161C144 48.5025 143.998 48.5913 143.98 48.6772C143.961 48.7631 143.925 48.8444 143.875 48.9164C143.779 49.0252 143.654 49.1041 143.515 49.144Z" fill="#263238"/>
<path d="M123.164 45.3508C123.063 45.3264 122.971 45.2738 122.899 45.1991C122.836 45.1373 122.786 45.0635 122.751 44.9821C122.717 44.9007 122.7 44.8133 122.7 44.725C122.7 44.6367 122.717 44.5492 122.751 44.4678C122.786 44.3864 122.836 44.3126 122.899 44.2508C123.626 43.4355 124.531 42.7991 125.544 42.3912C126.557 41.9833 127.651 41.8148 128.74 41.899C128.827 41.9125 128.911 41.9437 128.986 41.9908C129.06 42.0379 129.125 42.0998 129.174 42.1727C129.224 42.2456 129.258 42.3279 129.275 42.4146C129.292 42.5013 129.29 42.5905 129.271 42.6767C129.231 42.8523 129.127 43.007 128.981 43.1118C128.834 43.2165 128.654 43.2641 128.475 43.2456C127.613 43.1913 126.75 43.3339 125.952 43.6625C125.153 43.9911 124.44 44.4971 123.866 45.1422C123.78 45.2382 123.668 45.3085 123.545 45.3453C123.421 45.3821 123.289 45.384 123.164 45.3508Z" fill="#263238"/>
<path d="M194.514 122.864L174.789 117.611C174.789 117.611 155.444 165.234 148.597 168.326C139.304 172.574 115.768 187.291 105.754 194.252C105.204 196.623 105.64 202.9 106.892 204.626C123.961 201.516 156.639 188.941 163.467 182.55C179.038 167.965 194.514 122.864 194.514 122.864Z" fill="#E58A7B"/>
<path d="M180.745 592.421C179.782 592.497 178.823 592.236 178.033 591.681C177.788 591.461 177.606 591.18 177.502 590.868C177.399 590.555 177.379 590.221 177.445 589.899C177.457 589.697 177.523 589.503 177.636 589.336C177.75 589.169 177.906 589.036 178.089 588.95C179.683 588.135 184.14 590.961 184.652 591.283C184.708 591.318 184.751 591.37 184.775 591.432C184.799 591.493 184.802 591.561 184.784 591.625C184.768 591.691 184.735 591.752 184.689 591.801C184.642 591.851 184.584 591.888 184.519 591.909C183.282 592.213 182.017 592.385 180.745 592.421ZM178.848 589.462C178.704 589.43 178.555 589.43 178.412 589.462C178.339 589.499 178.279 589.557 178.238 589.627C178.198 589.698 178.179 589.779 178.184 589.861C178.134 590.081 178.142 590.312 178.209 590.528C178.275 590.744 178.398 590.939 178.564 591.094C179.303 591.757 181.162 591.833 183.609 591.359C182.152 590.399 180.511 589.754 178.791 589.462H178.848Z" fill="#FFC100"/>
<path d="M184.424 591.909C184.375 591.925 184.322 591.925 184.272 591.909C182.85 591.113 180.176 587.983 180.574 586.39C180.633 586.137 180.776 585.912 180.979 585.751C181.182 585.589 181.433 585.5 181.693 585.499C181.947 585.465 182.206 585.486 182.452 585.561C182.697 585.637 182.924 585.764 183.115 585.935C184.69 587.281 184.784 591.416 184.784 591.625C184.794 591.687 184.782 591.751 184.751 591.805C184.72 591.86 184.672 591.904 184.614 591.928C184.55 591.941 184.484 591.934 184.424 591.909ZM181.883 586.124H181.75C181.314 586.124 181.257 586.371 181.238 586.466C181.01 587.395 182.698 589.766 184.102 590.885C184.095 589.283 183.599 587.721 182.679 586.409C182.459 586.217 182.174 586.115 181.883 586.124Z" fill="#FFC100"/>
<path d="M130.39 590.05C129.23 590.455 127.966 590.455 126.806 590.05C126.542 589.908 126.319 589.701 126.156 589.449C125.994 589.197 125.898 588.908 125.876 588.609C125.852 588.422 125.876 588.231 125.946 588.055C126.016 587.879 126.129 587.724 126.275 587.604C127.792 586.238 133.994 587.604 134.695 587.869C134.762 587.887 134.821 587.926 134.863 587.981C134.904 588.036 134.925 588.104 134.923 588.173C134.926 588.244 134.908 588.314 134.871 588.375C134.833 588.436 134.779 588.484 134.714 588.514C133.318 589.145 131.872 589.659 130.39 590.05ZM127.299 587.794C127.082 587.837 126.88 587.935 126.711 588.078C126.65 588.123 126.604 588.185 126.577 588.255C126.55 588.326 126.544 588.402 126.559 588.476C126.572 588.675 126.634 588.868 126.74 589.037C126.846 589.206 126.992 589.346 127.166 589.444C128.171 589.975 130.504 589.557 133.52 588.287C131.488 587.774 129.385 587.608 127.299 587.794Z" fill="#FFC100"/>
<path d="M134.658 588.514H134.506C132.609 588.173 128.816 585.992 128.702 584.361C128.702 583.982 128.873 583.451 129.783 583.147C130.091 583.038 130.417 582.991 130.743 583.011C131.069 583.03 131.388 583.115 131.68 583.261C133.728 584.266 134.809 587.907 134.866 588.078C134.88 588.136 134.878 588.195 134.861 588.252C134.845 588.308 134.814 588.36 134.771 588.401C134.743 588.447 134.704 588.486 134.658 588.514ZM130.163 583.716H129.973C129.385 583.925 129.385 584.171 129.385 584.247C129.385 585.233 132.135 587.035 134.051 587.642C133.61 586.119 132.676 584.785 131.395 583.849C131.015 583.655 130.576 583.608 130.163 583.716Z" fill="#FFC100"/>
<path d="M107.366 193.133L87.5843 202.236L85.2895 207.926L92.5913 212.838C92.5913 212.838 106.247 211.359 110.135 202.578L107.366 193.133Z" fill="#E58A7B"/>
<path d="M108.2 204.949C107.758 201.148 106.503 197.487 104.521 194.214L107.65 191.862C110.004 195.633 111.506 199.873 112.05 204.285L108.2 204.949Z" fill="#263238"/>
<path d="M111.576 195.826C111.994 196.484 112.2 197.254 112.165 198.033C112.129 198.812 111.855 199.56 111.379 200.178C110.903 200.795 110.248 201.25 109.504 201.482C108.76 201.714 107.963 201.712 107.22 201.474C106.478 201.237 105.827 200.777 105.355 200.156C104.883 199.535 104.614 198.785 104.585 198.006C104.555 197.227 104.766 196.458 105.189 195.803C105.612 195.148 106.226 194.64 106.948 194.347C107.759 193.934 108.7 193.857 109.567 194.134C110.433 194.411 111.155 195.019 111.576 195.826Z" fill="#263238"/>
<path d="M74.2134 209.595L76.8496 212.25L94.6017 204.664L87.5843 202.236L74.2134 209.595Z" fill="#E58A7B"/>
<path opacity="0.2" d="M150.437 556.253C150.551 556.253 153.13 563.498 153.13 563.498L126.882 574.537L122.747 566.836L150.437 556.253Z" fill="black"/>
<path opacity="0.2" d="M204.092 565.452C204.205 565.452 204.964 572.754 204.964 572.754H176.212L174.163 564.371L204.092 565.452Z" fill="black"/>
<path d="M199.654 117.402C204.869 134.225 184.481 157.23 184.481 157.23L156.317 145.737C159.655 136.014 163.504 126.473 167.848 117.156C176.496 98.5122 194.381 100.428 199.654 117.402Z" fill="#FFC100"/>
<path opacity="0.2" d="M199.654 117.402C204.869 134.225 184.481 157.23 184.481 157.23L156.317 145.737C159.655 136.014 163.504 126.473 167.848 117.156C176.496 98.5122 194.381 100.428 199.654 117.402Z" fill="black"/>
</svg>
