<svg width="192" height="559" viewBox="0 0 192 559" fill="none" xmlns="http://www.w3.org/2000/svg">
<path d="M46.3348 116.851C44.3016 121.303 42.1614 126.204 40.2995 130.955C38.4375 135.706 36.5328 140.607 34.8848 145.487C31.5201 155.103 28.9575 164.982 27.223 175.021L26.7522 178.167C26.7073 178.707 26.758 179.251 26.902 179.773C27.4071 181.546 28.2026 183.224 29.2562 184.738C32.0046 188.656 35.1929 192.246 38.7586 195.439C42.518 198.935 46.4615 202.229 50.5723 205.305C54.6815 208.472 59.0046 211.554 63.2636 214.465L59.2614 221.977C49.0918 217.546 39.4389 212.012 30.4761 205.476C25.6944 201.989 21.3789 197.904 17.635 193.32C15.4159 190.591 13.6853 187.5 12.52 184.181C11.8425 182.108 11.4958 179.942 11.4927 177.761C11.4927 177.247 11.4927 176.498 11.4927 176.134V175.086L11.7068 172.945C12.9337 161.795 15.2783 150.796 18.7051 140.115C20.3745 134.85 22.1508 129.607 24.184 124.492C26.2171 119.377 28.3145 114.369 30.9041 109.168L46.3348 116.851Z" fill="#E58A7B"/>
<path d="M60.2459 213.138L75.3769 205.476L71.4604 222.084C71.4604 222.084 61.0805 224.994 56.2651 219.944L60.2459 213.138Z" fill="#E58A7B"/>
<path d="M89.2239 208.194L85.2004 221.934L71.4604 222.084L75.377 205.476L89.2239 208.194Z" fill="#E58A7B"/>
<path d="M110.583 36.7233C111.392 39.6893 112.519 42.5594 113.943 45.284C113.527 45.7559 112.991 46.1065 112.392 46.2986C111.793 46.4908 111.153 46.5173 110.54 46.3755L110.583 36.7233Z" fill="#DF5753"/>
<path d="M110.133 36.8517C111.02 36.8517 111.739 35.7498 111.739 34.3906C111.739 33.0313 111.02 31.9293 110.133 31.9293C109.247 31.9293 108.528 33.0313 108.528 34.3906C108.528 35.7498 109.247 36.8517 110.133 36.8517Z" fill="#263238"/>
<path d="M109.663 32.015L112.916 31.0947C112.916 31.0947 111.332 33.6201 109.663 32.015Z" fill="#263238"/>
<path d="M68.7852 52.4322C70.7328 62.384 72.6803 80.6397 65.7034 87.2957C65.7034 87.2957 68.4428 97.3973 86.9553 97.3973C107.308 97.3973 96.6717 87.2957 96.6717 87.2957C85.5642 84.6419 85.8424 76.4022 87.79 68.6547L68.7852 52.4322Z" fill="#E58A7B"/>
<path d="M63.3706 29.7464C64.3978 46.3755 64.4835 53.4381 72.8729 61.9774C85.5214 74.8185 105.725 69.9389 109.684 53.4167C113.258 38.4355 110.989 13.7807 94.7027 7.16754C91.1277 5.69479 87.2361 5.1584 83.3959 5.6091C79.5558 6.05981 75.8942 7.48271 72.7573 9.74322C69.6205 12.0037 67.1121 15.0271 65.4696 18.5274C63.827 22.0276 63.1046 25.8891 63.3706 29.7464Z" fill="#E58A7B"/>
<path d="M65.0184 11.0412C56.6718 14.0803 45.5429 11.8117 49.9088 37.558C54.5316 64.8238 47.4262 73.7912 47.4262 73.7912C47.4262 73.7912 79.0794 80.5327 111.396 73.3845C111.396 73.3845 101.53 56.1347 104.291 43.4221C107.822 27.3708 105.04 21.4425 105.04 21.4425C105.04 21.4425 76.7466 6.7609 65.0184 11.0412Z" fill="#263238"/>
<path d="M100.331 38.4141C100.34 41.576 101.245 44.6706 102.942 47.3386C105.211 50.8057 107.886 49.4788 108.55 45.7977C109.149 42.566 108.699 36.8518 105.81 34.626C102.921 32.4002 100.374 34.5831 100.331 38.4141Z" fill="#E58A7B"/>
<path d="M57.7633 13.8449C55.3663 7.10332 66.7949 -3.27652 90.9789 1.00383C115.163 5.28418 116.211 25.4232 116.211 25.4232L111.332 19.6019L111.546 25.7228L86.6985 30.4954L57.7633 13.8449Z" fill="#263238"/>
<path d="M59.8179 88.43C59.6751 87.4528 59.9196 86.4584 60.4993 85.6589C61.079 84.8593 61.948 84.3178 62.9211 84.1496C70.4545 82.9083 87.5759 80.3829 96.1794 81.5814C102.6 82.4803 104.269 86.2042 104.548 89.2646C104.591 89.8005 104.519 90.3395 104.337 90.8454C104.155 91.3513 103.867 91.8123 103.492 92.1975C103.117 92.5827 102.664 92.8832 102.163 93.0787C101.662 93.2742 101.125 93.3602 100.588 93.3309L63.392 91.6616C62.5151 91.6173 61.6803 91.2715 61.0291 90.6826C60.3778 90.0938 59.9499 89.298 59.8179 88.43Z" fill="#FFC100"/>
<path opacity="0.6" d="M59.8179 88.43C59.6751 87.4528 59.9196 86.4584 60.4993 85.6589C61.079 84.8593 61.948 84.3178 62.9211 84.1496C70.4545 82.9083 87.5759 80.3829 96.1794 81.5814C102.6 82.4803 104.269 86.2042 104.548 89.2646C104.591 89.8005 104.519 90.3395 104.337 90.8454C104.155 91.3513 103.867 91.8123 103.492 92.1975C103.117 92.5827 102.664 92.8832 102.163 93.0787C101.662 93.2742 101.125 93.3602 100.588 93.3309L63.392 91.6616C62.5151 91.6173 61.6803 91.2715 61.0291 90.6826C60.3778 90.0938 59.9499 89.298 59.8179 88.43Z" fill="black"/>
<path d="M81.3266 462.318L95.1308 471.906L118.223 440.596L104.419 431.029L81.3266 462.318Z" fill="#E58A7B"/>
<path d="M49.1385 461.698L63.713 470.002L84.1517 436.893L69.5771 428.589L49.1385 461.698Z" fill="#E58A7B"/>
<path d="M118.202 440.596L106.302 456.733L92.4983 447.166L104.398 431.029L118.202 440.596Z" fill="#CF6F64"/>
<path d="M69.5557 428.589L84.1517 436.915L73.6221 453.972L59.0261 445.646L69.5557 428.589Z" fill="#CF6F64"/>
<path d="M92.9691 192.956C92.9691 192.956 146.859 260.864 136.736 325.818C128.582 378.274 81.2838 449.306 81.2838 449.306L59.0474 438.263C74.7209 406.856 88.0964 374.355 99.0686 341.013C102.452 330.662 103.44 319.677 101.957 308.888C100.474 298.1 96.5589 287.789 90.5079 278.734C63.1993 238.863 19.4541 262.597 48.8815 192.956H92.9691Z" fill="#FFC100"/>
<path opacity="0.6" d="M92.9691 192.956C92.9691 192.956 146.859 260.864 136.736 325.818C128.582 378.274 81.2838 449.306 81.2838 449.306L59.0474 438.263C74.7209 406.856 88.0964 374.355 99.0686 341.013C102.452 330.662 103.44 319.677 101.957 308.888C100.474 298.1 96.5589 287.789 90.5079 278.734C63.1993 238.863 19.4541 262.597 48.8815 192.956H92.9691Z" fill="black"/>
<path opacity="0.4" d="M119.4 236.573L111.567 228.783C111.567 229.403 126.741 323.079 131 349.403C133.513 341.713 135.438 333.843 136.757 325.861C141.765 293.994 131.3 261.442 119.4 236.573Z" fill="black"/>
<path d="M117.025 192.956C117.025 192.956 181.915 278.306 183.755 329.478C185.275 372.281 113.13 455.213 113.13 455.213L92.1559 441.644C92.1559 441.644 134.382 382.747 145.018 334.636C140.909 286.953 54.018 192.956 54.018 192.956H117.025Z" fill="#FFC100"/>
<path opacity="0.6" d="M117.025 192.956C117.025 192.956 181.915 278.306 183.755 329.478C185.275 372.281 113.13 455.213 113.13 455.213L92.1559 441.644C92.1559 441.644 134.382 382.747 145.018 334.636C140.909 286.953 54.018 192.956 54.018 192.956H117.025Z" fill="black"/>
<path d="M36.7468 91.1052C29.8126 92.7531 23.1567 117.964 23.1567 117.964L50.2727 136.07C50.2727 136.07 59.3043 116.124 56.1368 107.392C52.8623 98.2962 45.4573 89.0292 36.7468 91.1052Z" fill="#FFC100"/>
<path opacity="0.2" d="M42.0545 107.349L40.1711 129.329L50.2513 136.092C53.0347 129.826 55.0954 123.263 56.3936 116.53L42.0545 107.349Z" fill="black"/>
<path d="M125.05 91.5974C125.05 91.5974 133.055 94.401 117.025 192.935H48.8388C49.9944 165.112 50.0158 147.991 36.7468 91.1052C46.2943 89.1376 55.9718 87.8644 65.7033 87.2957C76.0129 86.5564 86.3621 86.5564 96.6716 87.2957C109.984 88.5156 125.05 91.5974 125.05 91.5974Z" fill="#FFC100"/>
<path d="M131.985 107.349C133.526 111.629 135.152 116.231 136.864 120.661C138.576 125.091 140.203 129.65 141.936 134.144L147.18 147.584L148.507 150.944L149.192 152.614L149.513 153.448C149.513 153.598 149.513 153.598 149.513 153.577C149.122 153.026 148.609 152.572 148.014 152.25C147.168 151.752 146.213 151.465 145.232 151.415C144.417 151.39 143.606 151.543 142.857 151.865C141.872 152.314 141.872 152.507 141.894 152.485C142.072 152.343 142.23 152.177 142.364 151.993C143.549 150.438 144.574 148.767 145.425 147.007C146.431 145.038 147.394 142.94 148.357 140.821C150.24 136.541 151.974 132.111 153.707 127.638C155.441 123.165 157.089 118.649 158.694 114.091L163.574 100.436L171.813 102.577C170.187 112.336 168.089 121.838 165.564 131.512C164.344 136.327 162.91 141.1 161.284 145.915C160.47 148.333 159.571 150.73 158.544 153.192C157.473 155.863 156.155 158.428 154.606 160.853C154.037 161.67 153.407 162.442 152.723 163.165C151.63 164.345 150.304 165.285 148.828 165.926C147.518 166.488 146.1 166.751 144.676 166.696C143.081 166.637 141.527 166.173 140.16 165.348C138.548 164.342 137.21 162.952 136.265 161.303C135.944 160.746 135.666 160.19 135.473 159.783L135.066 158.97L134.253 157.301L132.627 153.983C130.486 149.532 128.346 145.038 126.484 140.522C124.622 136.006 122.653 131.426 120.813 126.825C118.972 122.223 117.324 117.622 115.762 112.657L131.985 107.349Z" fill="#E58A7B"/>
<path d="M125.05 91.5974C133.247 93.545 142.471 117.772 142.471 117.772L118.095 138.51C118.095 138.51 102.322 112.1 105.511 103.39C108.828 94.3154 114.349 89.0506 125.05 91.5974Z" fill="#FFC100"/>
<path d="M167.447 92.7745L176.008 85.6263L181.958 94.8933L177.57 102.619C177.57 102.619 170.593 109.04 164.43 105.765C163.451 103.566 163.217 101.109 163.761 98.7642C164.306 96.4199 165.6 94.3171 167.447 92.7745Z" fill="#E58A7B"/>
<path d="M191.46 85.6477L190.818 87.9805L177.271 90.2491L175.944 85.6263L191.46 85.6477Z" fill="#E58A7B"/>
<path d="M114.799 456.305L90.3581 440.51L94.7455 432.891L122.204 449.777L114.799 456.305Z" fill="#FFC100"/>
<path d="M73.2795 468.889C71.1351 468.627 69.0746 467.896 67.2442 466.749C67.1687 466.722 67.1032 466.673 67.0569 466.608C67.0105 466.543 66.9856 466.465 66.9856 466.385C66.9856 466.305 67.0105 466.227 67.0569 466.162C67.1032 466.096 67.1687 466.047 67.2442 466.021C67.9077 465.807 73.6648 464.031 75.3341 465.4C75.5217 465.556 75.6643 465.76 75.7471 465.989C75.8298 466.219 75.8498 466.466 75.8049 466.706C75.7752 467.091 75.6475 467.462 75.434 467.785C75.2205 468.107 74.9283 468.369 74.585 468.546C74.1842 468.765 73.7361 468.883 73.2795 468.889ZM68.4641 466.535C71.1393 467.904 73.2795 468.397 74.3068 467.883C74.5305 467.759 74.7187 467.58 74.8536 467.363C74.9884 467.145 75.0654 466.897 75.0772 466.642C75.0772 466.299 75.0773 466.149 74.8846 466.064C73.9858 465.336 70.7755 465.893 68.4213 466.535H68.4641Z" fill="#263238"/>
<path d="M67.3941 466.898C67.2812 466.897 67.1735 466.851 67.0945 466.77C67.0626 466.711 67.046 466.645 67.046 466.577C67.046 466.51 67.0626 466.444 67.0945 466.385C67.0945 466.192 68.4856 461.548 70.6686 460.499C70.9474 460.372 71.2503 460.306 71.5568 460.306C71.8632 460.306 72.1661 460.372 72.4449 460.499C72.7455 460.594 73.0056 460.787 73.184 461.047C73.3624 461.307 73.4488 461.619 73.4294 461.933C73.2796 463.859 69.3631 466.513 67.5653 466.963L67.3941 466.898ZM71.5461 461.056C71.3379 461.062 71.1335 461.113 70.9468 461.206C69.6199 461.848 68.5284 464.352 67.9934 465.871C69.8767 465.079 72.4663 462.982 72.5519 461.805C72.5519 461.612 72.5519 461.377 72.0597 461.163C71.8996 461.077 71.7258 461.019 71.5461 460.991V461.056Z" fill="#263238"/>
<path d="M103.82 478.134C101.401 478.134 98.0414 475.031 96.2008 473.126C96.1538 473.061 96.1285 472.982 96.1285 472.902C96.1285 472.821 96.1538 472.742 96.2008 472.677C96.2431 472.608 96.3032 472.552 96.3747 472.514C96.4463 472.476 96.5267 472.459 96.6074 472.463C97.4635 472.463 104.89 473.576 105.939 475.673C106.05 475.861 106.108 476.076 106.108 476.294C106.108 476.512 106.05 476.726 105.939 476.914C105.781 477.241 105.544 477.522 105.248 477.732C104.952 477.942 104.608 478.073 104.248 478.113L103.82 478.134ZM97.6133 473.426C100.31 476.037 102.686 477.492 104.034 477.321C104.27 477.29 104.495 477.202 104.689 477.064C104.883 476.926 105.04 476.742 105.147 476.529C105.195 476.456 105.22 476.371 105.22 476.283C105.22 476.196 105.195 476.11 105.147 476.037C104.59 474.881 100.631 473.897 97.6133 473.426Z" fill="#263238"/>
<path d="M97.8488 473.319C97.3684 473.333 96.8879 473.297 96.4148 473.212C96.3488 473.202 96.2864 473.175 96.2339 473.134C96.1814 473.093 96.1405 473.038 96.1152 472.977C96.0833 472.914 96.0666 472.844 96.0666 472.773C96.0666 472.703 96.0833 472.633 96.1152 472.57C96.2436 472.42 99.1329 468.932 101.872 468.696C102.648 468.636 103.416 468.882 104.012 469.381C104.847 470.109 104.804 470.751 104.59 471.157C104.055 472.613 100.353 473.319 97.8488 473.319ZM97.2923 472.527C99.6893 472.656 103.52 471.864 104.012 470.815C104.012 470.815 104.184 470.473 103.627 470.002C103.406 469.809 103.147 469.664 102.867 469.576C102.588 469.487 102.293 469.458 102.001 469.488C100.155 470.003 98.5122 471.071 97.2923 472.549V472.527Z" fill="#263238"/>
<path d="M67.972 464.587L49.8233 459.451C49.5104 459.356 49.1736 459.38 48.8774 459.518C48.5812 459.656 48.3464 459.899 48.2181 460.2L42.0972 473.961C41.9535 474.313 41.886 474.692 41.8992 475.073C41.9124 475.453 42.006 475.826 42.1737 476.168C42.3415 476.51 42.5797 476.812 42.8727 477.055C43.1657 477.298 43.5068 477.476 43.8736 477.578C50.2941 479.247 53.3759 479.718 61.3588 482.008C66.2812 483.378 73.301 485.925 80.0853 487.851C86.8697 489.777 89.1383 483.164 86.5058 481.751C74.6065 475.459 73.6648 471.05 70.4118 466.342C69.8291 465.489 68.9657 464.868 67.972 464.587Z" fill="#FFC100"/>
<path d="M96.6931 470.622L81.1982 459.921C80.9355 459.73 80.6117 459.642 80.2882 459.673C79.9647 459.705 79.6641 459.854 79.4433 460.093L69.1704 471.136C68.9201 471.421 68.7334 471.757 68.6227 472.12C68.512 472.483 68.4799 472.866 68.5285 473.242C68.5771 473.619 68.7052 473.981 68.9045 474.304C69.1037 474.627 69.3695 474.904 69.6841 475.117C75.1415 478.776 77.9666 480.253 84.7937 484.983C89.0741 487.894 97.3565 494.357 103.135 498.38C108.913 502.404 113.215 496.882 111.161 494.699C101.958 484.876 99.9461 478.712 98.4266 473.126C98.1628 472.113 97.5487 471.226 96.6931 470.622Z" fill="#FFC100"/>
<path d="M84.1303 450.719L56.201 436.829L59.0902 429.253L88.9242 443.892L84.1303 450.719Z" fill="#FFC100"/>
<path d="M47.8115 188.933L45.4573 195.096C45.2219 195.567 45.7783 196.059 46.5702 196.059H117.367C117.988 196.059 118.501 195.76 118.544 195.374L119.143 189.254C119.143 188.847 118.651 188.483 117.988 188.483H48.9244C48.7164 188.464 48.5069 188.494 48.3132 188.572C48.1196 188.651 47.9475 188.774 47.8115 188.933Z" fill="#FFC100"/>
<path opacity="0.4" d="M47.8115 188.933L45.4573 195.096C45.2219 195.567 45.7783 196.059 46.5702 196.059H117.367C117.988 196.059 118.501 195.76 118.544 195.374L119.143 189.254C119.143 188.847 118.651 188.483 117.988 188.483H48.9244C48.7164 188.464 48.5069 188.494 48.3132 188.572C48.1196 188.651 47.9475 188.774 47.8115 188.933Z" fill="white"/>
<path d="M58.9618 196.659H57.0999C56.7361 196.659 56.4578 196.466 56.4792 196.231L57.3567 188.291C57.3567 188.076 57.6991 187.884 58.063 187.884H59.9249C60.2887 187.884 60.567 188.076 60.5456 188.291L59.6681 196.231C59.6467 196.466 59.3257 196.659 58.9618 196.659Z" fill="#FFC100"/>
<path d="M102.621 196.659H100.781C100.417 196.659 100.139 196.466 100.16 196.231L101.016 188.291C101.016 188.076 101.38 187.884 101.744 187.884H103.584C103.948 187.884 104.248 188.076 104.205 188.291L103.349 196.231C103.242 196.466 103.007 196.659 102.621 196.659Z" fill="#FFC100"/>
<g style="mix-blend-mode:multiply">
<path d="M57.3353 559.097C89.0007 559.097 114.671 557.238 114.671 554.945C114.671 552.652 89.0007 550.793 57.3353 550.793C25.6699 550.793 0 552.652 0 554.945C0 557.238 25.6699 559.097 57.3353 559.097Z" fill="#F5F5F5"/>
</g>
<path d="M101.963 529.501C91.8185 526.547 80.5612 522.759 73.7555 518.8C73.5628 518.672 73.3488 518.607 73.1562 518.5V472.572H93.6805C95.2385 472.48 96.7024 471.796 97.7729 470.66C98.8434 469.525 99.4396 468.023 99.4396 466.462C99.4396 464.901 98.8434 463.4 97.7729 462.264C96.7024 461.128 95.2385 460.444 93.6805 460.352H73.2632V251H60.9358V460.352H40.5399C39.7071 460.303 38.873 460.424 38.0889 460.709C37.3047 460.994 36.587 461.436 35.9799 462.008C35.3728 462.58 34.8891 463.27 34.5584 464.036C34.2278 464.802 34.0573 465.628 34.0573 466.462C34.0573 467.296 34.2278 468.122 34.5584 468.888C34.8891 469.654 35.3728 470.344 35.9799 470.916C36.587 471.489 37.3047 471.931 38.0889 472.215C38.873 472.5 39.7071 472.622 40.5399 472.572H60.9358V518.436C60.7432 518.436 60.5506 518.607 60.358 518.736C53.4452 522.759 42.2735 526.547 32.1291 529.437C31.4438 529.644 30.8554 530.09 30.4703 530.693C30.0853 531.297 29.929 532.018 30.0299 532.727C30.1308 533.436 30.4821 534.085 31.0203 534.557C31.5584 535.029 32.2479 535.293 32.9637 535.301H101.128C101.812 535.254 102.46 534.974 102.962 534.508C103.465 534.042 103.793 533.417 103.89 532.738C103.988 532.06 103.85 531.368 103.499 530.779C103.148 530.19 102.606 529.739 101.963 529.501Z" fill="#E0E0E0"/>
<path d="M95.4089 249.264H19.3043C13.1816 249.264 8.2182 254.227 8.2182 260.35V282.972C8.2182 289.094 13.1816 294.058 19.3043 294.058H95.4089C101.532 294.058 106.495 289.094 106.495 282.972V260.35C106.495 254.227 101.532 249.264 95.4089 249.264Z" fill="#FFC100"/>
<path d="M18.5981 294.079V297.974C18.5981 301.185 22.0866 303.796 26.367 303.796H88.432C92.7124 303.796 96.2009 301.185 96.2009 297.974V294.079H18.5981Z" fill="#FFC100"/>
<path opacity="0.3" d="M18.5981 294.079V297.974C18.5981 301.185 22.0866 303.796 26.367 303.796H88.432C92.7124 303.796 96.2009 301.185 96.2009 297.974V294.079H18.5981Z" fill="white"/>
</svg>
